# xmcd
#
# Track frame offsets:
#	150
#	12200
#	25222
#	41200
#	58905
#	67592
#	81680
#	95122
#	111392
#	120277
#	133752
#	145615
#
# Disc length: 2132 seconds
#
# Revision: 1
# Processed by: cddbd v1.5.1PL2 Copyright (c) Steve Scherf et al.
# Submitted via: audiograbber 1.83.01
#
DISCID=a808520c
DTITLE=Kristen Chandler - bird
DYEAR=2006
DGENRE=Blues
TTITLE0=Kristen Chandler - Live Again
TTITLE1=Kristen Chandler - Miss Me
TTITLE2=Kristen Chandler - Angle of Approach
TTITLE3=Kristen Chandler - Break the Day
TTITLE4=Kristen Chandler - Free
TTITLE5=Kristen Chandler - All That is Not You
TTITLE6=Kristen Chandler - Big Fish Bike Cops
TTITLE7=Kristen Chandler - Then Will I
TTITLE8=Kristen Chandler - Levitate
TTITLE9=Kristen Chandler - All a Part
TTITLE10=Kristen Chandler - My Mistake
TTITLE11=Kristen Chandler - Bird
EXTD=
EXTT0=
EXTT1=
EXTT2=
EXTT3=
EXTT4=
EXTT5=
EXTT6=
EXTT7=
EXTT8=
EXTT9=
EXTT10=
EXTT11=
PLAYORDER=
